# xmcd
#
# Track frame offsets:
# 150
# 18952
# 35983
# 56887
# 72440
# 86247
# 101886
# 114238
# 130770
# 150766
# 181405
#
# Disc length: 2635 seconds
#
#
# Revision: 0
# Processed by: cddbd v1.5.2PL0 Copyright (c) Steve Scherf et al.
# Submitted via: FreeRIP 2.96 
#
DISCID=930a490b
DTITLE=ROOT! - Root Supposed He Was Out Of The Question
DYEAR=1900
DGENRE=
TTITLE0=I Wish I Was Tex Perkins
TTITLE1=Spring Me Out Of Caroline Springs, Caroline
TTITLE2=Shazza And Michelle
TTITLE3=Young Man's Blues Blues
TTITLE4=I Still Call Australia "Ho"
TTITLE5=My Cowboy Hat Is Bigger Than Texas
TTITLE6=The Ballad Of The Poowong Magpies
TTITLE7=School Mum
TTITLE8=Pauline Hanson Says There's Christian Muslims Too
TTITLE9=Back To Mine
TTITLE10=Root 66 (Bonus)
EXTD=
EXTT0=
EXTT1=
EXTT2=
EXTT3=
EXTT4=
EXTT5=
EXTT6=
EXTT7=
EXTT8=
EXTT9=
EXTT10=
PLAYORDER=
